<?xml version="1.0" encoding="UTF-8" standalone="no"?><!DOCTYPE svg PUBLIC "-//W3C//DTD SVG 1.1//EN" "http://www.w3.org/Graphics/SVG/1.1/DTD/svg11.dtd"><svg width="100%" height="100%" viewBox="0 0 32 32" version="1.1" xmlns="http://www.w3.org/2000/svg" xmlns:xlink="http://www.w3.org/1999/xlink" xml:space="preserve" xmlns:serif="http://www.serif.com/" style="fill-rule:evenodd;clip-rule:evenodd;stroke-linejoin:round;stroke-miterlimit:2;"><path d="M12.271,30.768l0,-1.042c0,-0.288 0.234,-0.521 0.521,-0.521l6.216,0c0.288,0 0.521,0.234 0.521,0.521l-0,1.042c0,0.288 -0.234,0.521 -0.521,0.521l-6.216,0c-0.288,0 -0.521,-0.234 -0.521,-0.521Z" style="fill:#0e113f;"/><path d="M3.349,22.371l0,-2.878c0,-0.794 0.645,-1.439 1.439,-1.439l22.224,0c0.794,0 1.439,0.645 1.439,1.439l0,2.878c0,0.794 -0.645,1.439 -1.439,1.439l-22.224,-0c-0.794,0 -1.439,-0.645 -1.439,-1.439Z" style="fill:#2c3282;"/><path d="M6.809,27.39l0,-2.085c0,-0.575 0.467,-1.042 1.042,-1.042l16.099,0c0.575,0 1.042,0.467 1.042,1.042l0,2.085c0,0.575 -0.467,1.042 -1.042,1.042l-16.099,-0c-0.575,0 -1.042,-0.467 -1.042,-1.042Z" style="fill:#202455;"/><path d="M0.857,15.393l0,-3.766c0,-1.039 0.844,-1.883 1.883,-1.883l26.401,0c1.039,0 1.883,0.844 1.883,1.883l0,3.766c0,1.039 -0.844,1.883 -1.883,1.883l-26.401,-0c-1.039,0 -1.883,-0.844 -1.883,-1.883Z" style="fill:#6331ff;"/><path d="M3.343,8.039l0,-1.948c0,-0.538 0.436,-0.974 0.974,-0.974l9.65,0c0.538,0 0.974,0.436 0.974,0.974l-0,1.948c0,0.538 -0.436,0.974 -0.974,0.974l-9.65,-0c-0.538,0 -0.974,-0.436 -0.974,-0.974Z" style="fill:#5e2aff;"/><path d="M16.859,8.039l0,-1.948c0,-0.538 0.436,-0.974 0.974,-0.974l9.65,0c0.538,0 0.974,0.436 0.974,0.974l0,1.948c0,0.538 -0.436,0.974 -0.974,0.974l-9.65,-0c-0.538,0 -0.974,-0.436 -0.974,-0.974Z" style="fill:#5e2aff;"/></svg>